<svg width="551" height="203" viewBox="0 0 551 203" fill="none" xmlns="http://www.w3.org/2000/svg">
  <mask id="path-1-outside-1" maskUnits="userSpaceOnUse" x="0" y="0" width="551" height="203" fill="black">
    <rect fill="white" width="551" height="203"/>
    <path d="M36.6306 75.3272C26.0552 75.3272 20.7675 84.8446 20.7675 103.879V105.393C20.7675 107.268 20.3207 108.205 19.427 108.205C17.1928 108.205 15.4799 105.61 14.2883 100.418C13.2456 95.2272 12.7243 90.829 12.7243 87.2239C12.7243 81.3116 14.0648 76.0482 16.7459 71.4337C19.5759 66.8192 23.8955 64.512 29.7045 64.512C41.1735 64.512 52.1957 71.0011 62.7711 83.9794C71.708 73.8852 81.2407 63.7188 91.3692 53.4804C101.647 43.0978 109.615 35.3109 115.275 30.1196L123.766 22.1163C133 8.70544 140.597 2 146.555 2C148.044 2 148.789 2.64891 148.789 3.94674C148.789 4.81195 148.491 5.82138 147.895 6.975C134.788 31.9221 122.797 60.0417 111.924 91.3337C98.2209 131.134 91.3692 161.633 91.3692 182.83C91.3692 189.464 92.1884 194.295 93.8269 197.323C94.4227 198.044 94.7206 198.765 94.7206 199.486C94.7206 200.495 93.8269 201 92.0395 201C88.0179 201 84.6665 199.991 81.9854 197.972C79.3044 196.097 77.368 193.574 76.1764 190.401C75.1338 187.229 74.3891 184.345 73.9422 181.749C73.4954 179.297 73.2719 176.774 73.2719 174.178C73.2719 169.852 74.0912 163.435 75.7296 154.927C77.368 146.419 78.1873 140.218 78.1873 136.325C78.1873 130.557 76.8467 123.779 74.1656 115.992C71.6335 108.061 68.2077 100.851 63.8882 94.362C59.1218 100.707 54.7278 107.052 50.7062 113.397C46.8336 119.742 44.078 124.428 42.4396 127.457L40.2053 132.215C34.8432 142.886 29.5555 152.62 24.3423 161.416C19.1291 170.213 15.2564 176.341 12.7243 179.802L8.92611 184.777C7.28768 186.652 5.79819 187.589 4.45765 187.589C2.81922 187.589 2 185.931 2 182.614C2.44685 162.282 21.5123 130.773 59.1963 88.0891C51.8978 79.5812 44.3759 75.3272 36.6306 75.3272ZM113.265 41.3674C96.8803 55.2109 81.5386 71.4337 67.2395 90.0359C73.4954 99.2649 78.3362 109.792 81.762 121.616C82.2089 122.914 82.5812 123.563 82.8791 123.563L83.9963 121.616C87.72 109.359 92.1884 96.6692 97.4016 83.5468C102.764 70.2801 107.158 60.1138 110.584 53.0478L115.722 42.6652C116.169 41.8 116.393 41.2232 116.393 40.9348C116.393 40.6464 116.169 40.5022 115.722 40.5022L113.265 41.3674Z"/>
    <path d="M149.142 168.879C140.428 176.81 134.694 180.776 131.938 180.776C130.672 180.776 130.039 180.127 130.039 178.829C130.039 178.036 130.225 177.062 130.598 175.909C130.97 174.683 131.417 173.493 131.938 172.34C132.534 171.114 133.092 169.996 133.614 168.987C134.135 167.978 134.656 167.04 135.178 166.175C135.699 165.31 135.96 164.841 135.96 164.769C137.077 162.822 138.753 160.118 140.987 156.658C143.221 153.125 145.008 150.241 146.349 148.005C147.689 145.698 148.36 144.292 148.36 143.788C148.36 143.427 148.174 143.247 147.801 143.247L146.237 143.788C142.811 146.167 138.715 149.88 133.949 154.927C129.183 159.902 125.273 164.3 122.219 168.122L117.639 173.746C116.671 175.116 115.814 176.233 115.07 177.098C114.325 177.964 113.245 178.793 111.83 179.586C110.49 180.451 109.112 180.884 107.697 180.884C106.654 180.884 106.133 180.595 106.133 180.019C106.133 179.442 106.84 177.783 108.255 175.043C109.67 172.232 111.085 169.564 112.5 167.04L114.623 163.363L125.571 144.761C126.688 142.958 127.581 141.588 128.252 140.651C128.996 139.642 130.002 138.416 131.268 136.974C132.534 135.46 133.874 134.342 135.289 133.621C136.779 132.9 138.343 132.468 139.981 132.323C140.577 132.323 140.875 132.576 140.875 133.08C140.875 133.513 140.763 133.874 140.54 134.162C138.827 136.758 136.183 141.048 132.608 147.032C129.108 153.017 126.874 156.91 125.906 158.713C125.682 159.145 125.571 159.47 125.571 159.686C125.571 159.83 125.645 159.902 125.794 159.902C125.943 159.902 126.315 159.686 126.911 159.253C128.326 157.667 130.151 155.684 132.385 153.305C134.694 150.926 138.566 147.357 144.003 142.598C149.44 137.767 153.908 134.522 157.408 132.864C158.228 132.504 159.01 132.323 159.754 132.323C160.797 132.323 161.318 132.9 161.318 134.054C160.722 137.443 157.855 143.247 152.716 151.466C147.056 160.479 144.226 165.815 144.226 167.473C144.226 168.05 144.487 168.338 145.008 168.338C145.381 168.338 145.79 168.23 146.237 168.014C146.759 167.725 147.317 167.365 147.913 166.932C148.509 166.427 148.993 165.995 149.365 165.634C149.812 165.274 150.371 164.805 151.041 164.228C151.711 163.579 152.121 163.183 152.27 163.039C155.398 160.01 159.531 155.648 164.67 149.952C164.893 149.736 165.079 149.628 165.228 149.628C165.377 149.628 165.452 149.772 165.452 150.06C165.452 151.43 164.893 152.764 163.776 154.062C158.265 159.974 153.387 164.913 149.142 168.879Z"/>
    <path d="M186.555 172.556C180.373 178.036 176.128 180.776 173.819 180.776C172.777 180.776 172.256 180.199 172.256 179.045C172.256 177.603 172.889 175.404 174.155 172.448C175.495 169.492 176.836 166.896 178.176 164.661L180.187 161.308C180.485 160.803 180.634 160.479 180.634 160.335C180.634 160.191 180.559 160.118 180.41 160.118C180.113 160.118 179.554 160.515 178.735 161.308C176.501 163.688 173.931 166.247 171.027 168.987C168.197 171.655 165.888 173.746 164.101 175.26L161.531 177.423C158.627 179.586 156.392 180.667 154.829 180.667C153.19 180.667 152.371 179.442 152.371 176.99C152.371 175.765 152.743 173.89 153.488 171.366C154.158 168.843 154.68 167.148 155.052 166.283C156.765 162.245 158.887 158.316 161.42 154.495C164.026 150.673 167.08 147.032 170.58 143.571C174.08 140.038 178.139 137.19 182.756 135.027C187.448 132.864 192.289 131.783 197.279 131.783C201.449 131.783 203.535 132.395 203.535 133.621C203.535 134.342 202.604 134.703 200.742 134.703C193.89 134.703 187.448 137.551 181.416 143.247C175.458 148.871 170.617 155.36 166.893 162.714C165.851 164.733 165.329 166.427 165.329 167.797C165.329 168.59 165.59 168.987 166.111 168.987C167.005 168.987 168.159 168.374 169.574 167.148C170.468 166.355 171.66 165.31 173.149 164.012C174.713 162.714 177.208 160.227 180.634 156.549C184.06 152.872 186.778 149.447 188.789 146.275C189.087 145.698 189.534 145.013 190.129 144.22C190.8 143.427 192.028 142.382 193.816 141.084C195.603 139.714 197.391 139.029 199.178 139.029C200.146 139.029 200.63 139.281 200.63 139.786C200.63 139.93 200.519 140.182 200.295 140.543C199.997 141.12 199.141 142.562 197.726 144.869C196.385 147.176 195.119 149.375 193.928 151.466C192.736 153.485 191.47 155.72 190.129 158.172C188.789 160.551 187.709 162.606 186.89 164.336C186.145 166.067 185.773 167.22 185.773 167.797C185.773 168.23 185.959 168.446 186.331 168.446C187.448 168.446 190.167 166.355 194.486 162.173C197.763 158.857 201.598 154.783 205.992 149.952C206.216 149.736 206.402 149.628 206.551 149.628C206.7 149.628 206.774 149.772 206.774 150.06C206.774 151.43 206.216 152.764 205.099 154.062C197.8 161.921 191.619 168.086 186.555 172.556Z"/>
    <path d="M242.088 129.295C242.014 131.314 236.391 140.002 225.22 155.36C224.996 155.648 224.885 155.865 224.885 156.009C224.885 156.513 225.853 156.766 227.789 156.766C231.438 156.766 235.497 154.206 239.966 149.087C240.04 149.015 240.152 148.979 240.301 148.979C240.673 148.979 240.859 149.339 240.859 150.06C240.859 150.853 239.966 152.223 238.178 154.17C234.976 157.631 231.066 159.361 226.449 159.361C225.704 159.361 225.034 159.325 224.438 159.253C223.842 159.109 223.395 159.001 223.097 158.929C222.799 158.785 222.613 158.713 222.539 158.713L221.98 159.037C217.81 163.94 213.974 168.23 210.474 171.907C206.974 175.512 204.479 177.928 202.989 179.153L200.867 180.884C199.675 181.749 198.744 182.182 198.074 182.182C197.18 182.182 196.733 181.497 196.733 180.127C196.733 175.368 198.67 167.761 202.542 157.307C206.49 146.78 209.32 140.182 211.033 137.515C213.416 133.838 216.357 131.999 219.858 131.999C220.379 131.999 220.64 132.251 220.64 132.756C220.64 133.116 220.342 133.874 219.746 135.027C213.267 148.078 209.245 159.217 207.681 168.446C207.681 169.239 207.83 169.636 208.128 169.636C208.426 169.636 208.873 169.384 209.469 168.879C212.671 166.644 216.283 162.75 220.305 157.198C220.454 156.982 220.528 156.73 220.528 156.441C220.23 155.792 220.081 154.927 220.081 153.846C220.081 149.52 222.315 144.725 226.784 139.461C231.327 134.126 235.907 130.629 240.524 128.971C240.971 128.826 241.269 128.754 241.418 128.754C241.865 128.754 242.088 128.935 242.088 129.295Z"/>
    <path d="M260.956 172.556C254.775 178.036 250.53 180.776 248.221 180.776C247.178 180.776 246.657 180.199 246.657 179.045C246.657 177.603 247.29 175.404 248.556 172.448C249.897 169.492 251.237 166.896 252.578 164.661L254.589 161.308C254.887 160.803 255.036 160.479 255.036 160.335C255.036 160.191 254.961 160.118 254.812 160.118C254.514 160.118 253.956 160.515 253.136 161.308C250.902 163.688 248.333 166.247 245.428 168.987C242.598 171.655 240.29 173.746 238.502 175.26L235.933 177.423C233.028 179.586 230.794 180.667 229.23 180.667C227.592 180.667 226.772 179.442 226.772 176.99C226.772 175.765 227.145 173.89 227.89 171.366C228.56 168.843 229.081 167.148 229.454 166.283C231.166 162.245 233.289 158.316 235.821 154.495C238.428 150.673 241.481 147.032 244.981 143.571C248.482 140.038 252.541 137.19 257.158 135.027C261.85 132.864 266.691 131.783 271.681 131.783C275.851 131.783 277.936 132.395 277.936 133.621C277.936 134.342 277.005 134.703 275.144 134.703C268.292 134.703 261.85 137.551 255.817 143.247C249.86 148.871 245.019 155.36 241.295 162.714C240.252 164.733 239.731 166.427 239.731 167.797C239.731 168.59 239.992 168.987 240.513 168.987C241.407 168.987 242.561 168.374 243.976 167.148C244.87 166.355 246.061 165.31 247.551 164.012C249.115 162.714 251.61 160.227 255.036 156.549C258.461 152.872 261.18 149.447 263.19 146.275C263.488 145.698 263.935 145.013 264.531 144.22C265.201 143.427 266.43 142.382 268.217 141.084C270.005 139.714 271.792 139.029 273.58 139.029C274.548 139.029 275.032 139.281 275.032 139.786C275.032 139.93 274.92 140.182 274.697 140.543C274.399 141.12 273.542 142.562 272.127 144.869C270.787 147.176 269.521 149.375 268.329 151.466C267.138 153.485 265.872 155.72 264.531 158.172C263.19 160.551 262.111 162.606 261.291 164.336C260.547 166.067 260.174 167.22 260.174 167.797C260.174 168.23 260.36 168.446 260.733 168.446C261.85 168.446 264.568 166.355 268.888 162.173C272.165 158.857 276 154.783 280.394 149.952C280.617 149.736 280.804 149.628 280.953 149.628C281.102 149.628 281.176 149.772 281.176 150.06C281.176 151.43 280.617 152.764 279.5 154.062C272.202 161.921 266.02 168.086 260.956 172.556Z"/>
    <path d="M332.8 163.039C335.928 160.01 340.061 155.648 345.2 149.952C345.423 149.736 345.609 149.628 345.758 149.628C345.907 149.628 345.982 149.772 345.982 150.06C345.982 151.43 345.423 152.764 344.306 154.062C338.795 159.974 333.917 164.913 329.672 168.879C320.884 176.81 315.112 180.776 312.357 180.776C311.165 180.776 310.569 180.091 310.569 178.721C310.569 177.351 311.314 175.08 312.803 171.907C314.367 168.735 315.894 165.851 317.384 163.255C318.948 160.659 320.884 157.487 323.193 153.738C325.576 149.988 326.842 147.969 326.991 147.681C328.331 145.59 329.002 144.256 329.002 143.679C329.002 143.319 328.815 143.139 328.443 143.139L326.879 143.679C323.453 146.059 319.357 149.772 314.591 154.819C309.824 159.794 305.915 164.156 302.861 167.905L298.281 173.638C294.855 178.396 291.504 180.776 288.227 180.776C287.259 180.776 286.775 180.487 286.775 179.91C286.775 179.261 287.482 177.567 288.897 174.827C290.312 172.015 291.727 169.384 293.142 166.932L295.265 163.255C295.786 162.245 297.052 160.082 299.063 156.766C301.148 153.377 302.861 150.493 304.202 148.114C305.617 145.662 306.324 144.148 306.324 143.571C306.324 143.211 306.175 143.03 305.877 143.03L304.313 143.679C300.813 146.059 296.68 149.772 291.913 154.819C287.147 159.794 283.274 164.156 280.295 167.905L275.715 173.638C272.215 178.324 268.864 180.667 265.661 180.667C264.693 180.667 264.209 180.415 264.209 179.91C264.209 179.261 264.916 177.567 266.331 174.827C267.746 172.015 269.161 169.384 270.576 166.932L272.699 163.255L283.535 144.653C285.322 141.408 287.482 138.524 290.014 136.001C292.546 133.405 295.19 132.107 297.946 132.107C298.542 132.107 298.84 132.359 298.84 132.864C298.84 133.297 298.393 134.234 297.499 135.676C296.68 137.046 295.451 138.993 293.812 141.516C292.249 143.968 290.908 146.239 289.791 148.33C289.121 149.556 288.301 150.962 287.333 152.548C286.44 154.062 285.695 155.36 285.099 156.441C284.503 157.451 284.094 158.172 283.87 158.604C283.647 159.037 283.535 159.361 283.535 159.578C283.535 159.722 283.61 159.794 283.758 159.794C283.982 159.794 284.354 159.542 284.876 159.037C286.291 157.451 288.115 155.468 290.349 153.089C292.658 150.709 296.531 147.14 301.967 142.382C307.404 137.551 311.873 134.306 315.373 132.648C316.118 132.287 316.862 132.107 317.607 132.107C318.65 132.107 319.171 132.612 319.171 133.621C319.171 135.496 316.974 140.363 312.58 148.222C312.208 148.871 311.426 150.132 310.234 152.007C309.117 153.882 308.149 155.504 307.33 156.874C306.585 158.244 306.212 159.109 306.212 159.47C306.212 159.686 306.287 159.794 306.436 159.794C306.659 159.794 307.032 159.542 307.553 159.037C308.968 157.451 310.793 155.468 313.027 153.089C315.336 150.709 319.171 147.14 324.533 142.382C329.97 137.551 334.438 134.306 337.939 132.648C338.832 132.287 339.614 132.107 340.284 132.107C341.402 132.107 341.96 132.612 341.96 133.621C341.96 133.91 341.811 134.559 341.513 135.568C341.215 136.505 340.359 138.488 338.944 141.516C337.529 144.472 335.667 147.753 333.358 151.358C327.698 159.794 324.868 165.094 324.868 167.257C324.868 167.905 325.092 168.23 325.539 168.23C326.805 168.23 329.225 166.499 332.8 163.039Z"/>
    <path d="M350.012 168.879C341.299 176.81 335.713 180.776 333.255 180.776C331.989 180.776 331.356 179.946 331.356 178.288C331.356 176.63 332.027 174.214 333.367 171.042C334.708 167.869 336.048 165.094 337.389 162.714L339.4 159.253C345.06 149.664 349.342 142.778 352.246 138.596C353.512 136.794 355.114 135.28 357.05 134.054C359.061 132.756 360.923 132.107 362.636 132.107C363.231 132.107 363.529 132.359 363.529 132.864C363.529 133.225 363.269 133.91 362.747 134.919C361.854 136.505 359.657 140.291 356.156 146.275C352.656 152.259 350.571 155.865 349.9 157.09C346.847 162.282 345.32 165.742 345.32 167.473C345.32 168.122 345.544 168.446 345.99 168.446C346.735 168.446 349.118 166.644 353.14 163.039C356.268 160.01 360.401 155.648 365.54 149.952C365.763 149.736 365.95 149.628 366.099 149.628C366.248 149.628 366.322 149.772 366.322 150.06C366.322 151.43 365.763 152.764 364.646 154.062C359.135 159.974 354.257 164.913 350.012 168.879ZM364.87 125.942C363.008 125.942 362.077 124.861 362.077 122.698C362.077 120.679 362.859 118.66 364.423 116.641C365.987 114.55 367.7 113.505 369.562 113.505C371.796 113.505 372.913 114.731 372.913 117.182C372.913 119.201 372.057 121.184 370.344 123.13C368.631 125.005 366.806 125.942 364.87 125.942Z"/>
    <path d="M531.734 19.3044C526.222 23.4862 519.52 31.85 511.626 44.3957C503.88 56.7971 495.241 72.0105 485.708 90.0359C476.325 108.061 471.484 117.362 471.186 117.939C470.143 119.67 468.281 122.986 465.6 127.889C462.919 132.792 460.76 136.686 459.121 139.57C457.632 142.309 455.323 146.131 452.195 151.034C449.216 155.792 446.535 159.686 444.152 162.714C441.769 165.742 438.864 169.131 435.438 172.88C432.012 176.486 428.661 179.297 425.384 181.316C422.256 183.479 418.682 185.282 414.66 186.724C410.638 188.166 406.617 188.887 402.595 188.887C399.169 188.887 397.456 188.238 397.456 186.94C397.456 186.508 397.68 186.075 398.127 185.642C398.573 185.21 399.02 184.849 399.467 184.561L400.137 184.345C406.542 180.451 414.436 172.087 423.82 159.253C433.204 146.419 441.024 134.522 447.28 123.563L456.44 107.34C463.292 94.6504 469.994 83.042 476.548 72.5152C483.251 61.8442 488.836 53.5525 493.305 47.6402C497.922 41.7279 501.944 36.7529 505.37 32.7152C508.944 28.5333 511.626 25.7214 513.413 24.2794L515.871 22.1163C516.317 21.6837 516.541 21.2511 516.541 20.8185C516.541 19.5207 514.307 18.8717 509.838 18.8717C505.072 18.8717 500.454 20.0254 495.986 22.3326C491.517 24.6399 487.719 27.4518 484.591 30.7685C481.612 34.0851 478.931 37.4739 476.548 40.9348C474.165 44.2515 472.452 47.0634 471.409 49.3707L469.622 52.8315C469.026 55.1388 468.207 56.2924 467.164 56.2924C464.632 56.2924 463.366 53.1199 463.366 46.775C463.366 38.988 465.973 32.4268 471.186 27.0913C476.548 21.7558 482.878 18.0786 490.177 16.0598C497.624 13.8967 505.668 12.8152 514.307 12.8152C519.52 12.8152 525.254 13.2478 531.51 14.113C533.298 14.4015 534.191 15.0504 534.191 16.0598C534.191 17.0692 533.372 18.1507 531.734 19.3044Z"/>
    <path d="M492.09 167.04C490.749 170.573 488.627 173.565 485.722 176.017C482.818 178.396 480.1 180.018 477.567 180.884C475.11 181.749 472.876 182.182 470.865 182.182C465.428 182.182 462.71 180.127 462.71 176.017C462.71 171.835 465.093 168.05 469.859 164.661C472.094 163.075 474.514 162.029 477.121 161.524C477.493 161.524 477.679 161.669 477.679 161.957C477.679 162.101 477.605 162.245 477.456 162.39C475.594 163.76 473.806 165.887 472.094 168.771C470.455 171.655 469.636 174.178 469.636 176.341C469.636 178.504 470.567 179.586 472.429 179.586C473.918 179.586 475.37 179.009 476.785 177.855C478.275 176.63 479.392 175.404 480.137 174.178L481.254 172.448C482.743 170.141 483.972 166.463 484.94 161.416C485.983 156.369 486.653 151.899 486.951 148.005L487.286 142.165C487.286 141.588 487.175 141.3 486.951 141.3L486.504 141.516L475.445 154.062C474.626 154.999 474.067 155.468 473.769 155.468C473.397 155.468 473.211 155.216 473.211 154.711C473.211 153.774 473.471 153.053 473.993 152.548L474.998 151.358C483.488 142.129 488.329 136.541 489.521 134.595C490.638 132.936 492.276 131.494 494.436 130.268C496.521 129.115 498.979 128.538 501.809 128.538C502.554 128.538 502.926 128.826 502.926 129.403C502.926 129.764 502.628 130.088 502.032 130.377C501.809 130.449 501.511 130.629 501.139 130.917C500.841 131.134 500.245 131.711 499.351 132.648C498.532 133.585 497.787 134.667 497.117 135.892C496.447 137.118 495.851 138.849 495.33 141.084C494.808 143.247 494.548 145.662 494.548 148.33C494.548 156.622 493.728 162.858 492.09 167.04Z"/>
    <path d="M528.78 172.556C522.599 178.036 518.354 180.776 516.045 180.776C515.002 180.776 514.481 180.199 514.481 179.045C514.481 177.603 515.114 175.404 516.38 172.448C517.721 169.492 519.061 166.896 520.402 164.661L522.413 161.308C522.711 160.803 522.859 160.479 522.859 160.335C522.859 160.191 522.785 160.118 522.636 160.118C522.338 160.118 521.78 160.515 520.96 161.308C518.726 163.688 516.157 166.247 513.252 168.987C510.422 171.655 508.114 173.746 506.326 175.26L503.757 177.423C500.852 179.586 498.618 180.667 497.054 180.667C495.416 180.667 494.596 179.442 494.596 176.99C494.596 175.765 494.969 173.89 495.714 171.366C496.384 168.843 496.905 167.148 497.278 166.283C498.99 162.245 501.113 158.316 503.645 154.495C506.252 150.673 509.305 147.032 512.805 143.571C516.306 140.038 520.365 137.19 524.982 135.027C529.674 132.864 534.515 131.783 539.505 131.783C543.675 131.783 545.76 132.395 545.76 133.621C545.76 134.342 544.829 134.703 542.968 134.703C536.116 134.703 529.674 137.551 523.641 143.247C517.684 148.871 512.843 155.36 509.119 162.714C508.076 164.733 507.555 166.427 507.555 167.797C507.555 168.59 507.816 168.987 508.337 168.987C509.231 168.987 510.385 168.374 511.8 167.148C512.694 166.355 513.885 165.31 515.375 164.012C516.939 162.714 519.434 160.227 522.859 156.549C526.285 152.872 529.004 149.447 531.014 146.275C531.312 145.698 531.759 145.013 532.355 144.22C533.025 143.427 534.254 142.382 536.041 141.084C537.829 139.714 539.616 139.029 541.404 139.029C542.372 139.029 542.856 139.281 542.856 139.786C542.856 139.93 542.744 140.182 542.521 140.543C542.223 141.12 541.366 142.562 539.951 144.869C538.611 147.176 537.345 149.375 536.153 151.466C534.962 153.485 533.696 155.72 532.355 158.172C531.014 160.551 529.935 162.606 529.115 164.336C528.371 166.067 527.998 167.22 527.998 167.797C527.998 168.23 528.184 168.446 528.557 168.446C529.674 168.446 532.392 166.355 536.712 162.173C539.989 158.857 543.824 154.783 548.218 149.952C548.441 149.736 548.628 149.628 548.777 149.628C548.925 149.628 549 149.772 549 150.06C549 151.43 548.441 152.764 547.324 154.062C540.026 161.921 533.844 168.086 528.78 172.556Z"/>
  </mask>
  <path d="M36.6306 75.3272C26.0552 75.3272 20.7675 84.8446 20.7675 103.879V105.393C20.7675 107.268 20.3207 108.205 19.427 108.205C17.1928 108.205 15.4799 105.61 14.2883 100.418C13.2456 95.2272 12.7243 90.829 12.7243 87.2239C12.7243 81.3116 14.0648 76.0482 16.7459 71.4337C19.5759 66.8192 23.8955 64.512 29.7045 64.512C41.1735 64.512 52.1957 71.0011 62.7711 83.9794C71.708 73.8852 81.2407 63.7188 91.3692 53.4804C101.647 43.0978 109.615 35.3109 115.275 30.1196L123.766 22.1163C133 8.70544 140.597 2 146.555 2C148.044 2 148.789 2.64891 148.789 3.94674C148.789 4.81195 148.491 5.82138 147.895 6.975C134.788 31.9221 122.797 60.0417 111.924 91.3337C98.2209 131.134 91.3692 161.633 91.3692 182.83C91.3692 189.464 92.1884 194.295 93.8269 197.323C94.4227 198.044 94.7206 198.765 94.7206 199.486C94.7206 200.495 93.8269 201 92.0395 201C88.0179 201 84.6665 199.991 81.9854 197.972C79.3044 196.097 77.368 193.574 76.1764 190.401C75.1338 187.229 74.3891 184.345 73.9422 181.749C73.4954 179.297 73.2719 176.774 73.2719 174.178C73.2719 169.852 74.0912 163.435 75.7296 154.927C77.368 146.419 78.1873 140.218 78.1873 136.325C78.1873 130.557 76.8467 123.779 74.1656 115.992C71.6335 108.061 68.2077 100.851 63.8882 94.362C59.1218 100.707 54.7278 107.052 50.7062 113.397C46.8336 119.742 44.078 124.428 42.4396 127.457L40.2053 132.215C34.8432 142.886 29.5555 152.62 24.3423 161.416C19.1291 170.213 15.2564 176.341 12.7243 179.802L8.92611 184.777C7.28768 186.652 5.79819 187.589 4.45765 187.589C2.81922 187.589 2 185.931 2 182.614C2.44685 162.282 21.5123 130.773 59.1963 88.0891C51.8978 79.5812 44.3759 75.3272 36.6306 75.3272ZM113.265 41.3674C96.8803 55.2109 81.5386 71.4337 67.2395 90.0359C73.4954 99.2649 78.3362 109.792 81.762 121.616C82.2089 122.914 82.5812 123.563 82.8791 123.563L83.9963 121.616C87.72 109.359 92.1884 96.6692 97.4016 83.5468C102.764 70.2801 107.158 60.1138 110.584 53.0478L115.722 42.6652C116.169 41.8 116.393 41.2232 116.393 40.9348C116.393 40.6464 116.169 40.5022 115.722 40.5022L113.265 41.3674Z" stroke="white" stroke-width="4" mask="url(#path-1-outside-1)"/>
  <path d="M149.142 168.879C140.428 176.81 134.694 180.776 131.938 180.776C130.672 180.776 130.039 180.127 130.039 178.829C130.039 178.036 130.225 177.062 130.598 175.909C130.97 174.683 131.417 173.493 131.938 172.34C132.534 171.114 133.092 169.996 133.614 168.987C134.135 167.978 134.656 167.04 135.178 166.175C135.699 165.31 135.96 164.841 135.96 164.769C137.077 162.822 138.753 160.118 140.987 156.658C143.221 153.125 145.008 150.241 146.349 148.005C147.689 145.698 148.36 144.292 148.36 143.788C148.36 143.427 148.174 143.247 147.801 143.247L146.237 143.788C142.811 146.167 138.715 149.88 133.949 154.927C129.183 159.902 125.273 164.3 122.219 168.122L117.639 173.746C116.671 175.116 115.814 176.233 115.07 177.098C114.325 177.964 113.245 178.793 111.83 179.586C110.49 180.451 109.112 180.884 107.697 180.884C106.654 180.884 106.133 180.595 106.133 180.019C106.133 179.442 106.84 177.783 108.255 175.043C109.67 172.232 111.085 169.564 112.5 167.04L114.623 163.363L125.571 144.761C126.688 142.958 127.581 141.588 128.252 140.651C128.996 139.642 130.002 138.416 131.268 136.974C132.534 135.46 133.874 134.342 135.289 133.621C136.779 132.9 138.343 132.468 139.981 132.323C140.577 132.323 140.875 132.576 140.875 133.08C140.875 133.513 140.763 133.874 140.54 134.162C138.827 136.758 136.183 141.048 132.608 147.032C129.108 153.017 126.874 156.91 125.906 158.713C125.682 159.145 125.571 159.47 125.571 159.686C125.571 159.83 125.645 159.902 125.794 159.902C125.943 159.902 126.315 159.686 126.911 159.253C128.326 157.667 130.151 155.684 132.385 153.305C134.694 150.926 138.566 147.357 144.003 142.598C149.44 137.767 153.908 134.522 157.408 132.864C158.228 132.504 159.01 132.323 159.754 132.323C160.797 132.323 161.318 132.9 161.318 134.054C160.722 137.443 157.855 143.247 152.716 151.466C147.056 160.479 144.226 165.815 144.226 167.473C144.226 168.05 144.487 168.338 145.008 168.338C145.381 168.338 145.79 168.23 146.237 168.014C146.759 167.725 147.317 167.365 147.913 166.932C148.509 166.427 148.993 165.995 149.365 165.634C149.812 165.274 150.371 164.805 151.041 164.228C151.711 163.579 152.121 163.183 152.27 163.039C155.398 160.01 159.531 155.648 164.67 149.952C164.893 149.736 165.079 149.628 165.228 149.628C165.377 149.628 165.452 149.772 165.452 150.06C165.452 151.43 164.893 152.764 163.776 154.062C158.265 159.974 153.387 164.913 149.142 168.879Z" stroke="white" stroke-width="4" mask="url(#path-1-outside-1)"/>
  <path d="M186.555 172.556C180.373 178.036 176.128 180.776 173.819 180.776C172.777 180.776 172.256 180.199 172.256 179.045C172.256 177.603 172.889 175.404 174.155 172.448C175.495 169.492 176.836 166.896 178.176 164.661L180.187 161.308C180.485 160.803 180.634 160.479 180.634 160.335C180.634 160.191 180.559 160.118 180.41 160.118C180.113 160.118 179.554 160.515 178.735 161.308C176.501 163.688 173.931 166.247 171.027 168.987C168.197 171.655 165.888 173.746 164.101 175.26L161.531 177.423C158.627 179.586 156.392 180.667 154.829 180.667C153.19 180.667 152.371 179.442 152.371 176.99C152.371 175.765 152.743 173.89 153.488 171.366C154.158 168.843 154.68 167.148 155.052 166.283C156.765 162.245 158.887 158.316 161.42 154.495C164.026 150.673 167.08 147.032 170.58 143.571C174.08 140.038 178.139 137.19 182.756 135.027C187.448 132.864 192.289 131.783 197.279 131.783C201.449 131.783 203.535 132.395 203.535 133.621C203.535 134.342 202.604 134.703 200.742 134.703C193.89 134.703 187.448 137.551 181.416 143.247C175.458 148.871 170.617 155.36 166.893 162.714C165.851 164.733 165.329 166.427 165.329 167.797C165.329 168.59 165.59 168.987 166.111 168.987C167.005 168.987 168.159 168.374 169.574 167.148C170.468 166.355 171.66 165.31 173.149 164.012C174.713 162.714 177.208 160.227 180.634 156.549C184.06 152.872 186.778 149.447 188.789 146.275C189.087 145.698 189.534 145.013 190.129 144.22C190.8 143.427 192.028 142.382 193.816 141.084C195.603 139.714 197.391 139.029 199.178 139.029C200.146 139.029 200.63 139.281 200.63 139.786C200.63 139.93 200.519 140.182 200.295 140.543C199.997 141.12 199.141 142.562 197.726 144.869C196.385 147.176 195.119 149.375 193.928 151.466C192.736 153.485 191.47 155.72 190.129 158.172C188.789 160.551 187.709 162.606 186.89 164.336C186.145 166.067 185.773 167.22 185.773 167.797C185.773 168.23 185.959 168.446 186.331 168.446C187.448 168.446 190.167 166.355 194.486 162.173C197.763 158.857 201.598 154.783 205.992 149.952C206.216 149.736 206.402 149.628 206.551 149.628C206.7 149.628 206.774 149.772 206.774 150.06C206.774 151.43 206.216 152.764 205.099 154.062C197.8 161.921 191.619 168.086 186.555 172.556Z" stroke="white" stroke-width="4" mask="url(#path-1-outside-1)"/>
  <path d="M242.088 129.295C242.014 131.314 236.391 140.002 225.22 155.36C224.996 155.648 224.885 155.865 224.885 156.009C224.885 156.513 225.853 156.766 227.789 156.766C231.438 156.766 235.497 154.206 239.966 149.087C240.04 149.015 240.152 148.979 240.301 148.979C240.673 148.979 240.859 149.339 240.859 150.06C240.859 150.853 239.966 152.223 238.178 154.17C234.976 157.631 231.066 159.361 226.449 159.361C225.704 159.361 225.034 159.325 224.438 159.253C223.842 159.109 223.395 159.001 223.097 158.929C222.799 158.785 222.613 158.713 222.539 158.713L221.98 159.037C217.81 163.94 213.974 168.23 210.474 171.907C206.974 175.512 204.479 177.928 202.989 179.153L200.867 180.884C199.675 181.749 198.744 182.182 198.074 182.182C197.18 182.182 196.733 181.497 196.733 180.127C196.733 175.368 198.67 167.761 202.542 157.307C206.49 146.78 209.32 140.182 211.033 137.515C213.416 133.838 216.357 131.999 219.858 131.999C220.379 131.999 220.64 132.251 220.64 132.756C220.64 133.116 220.342 133.874 219.746 135.027C213.267 148.078 209.245 159.217 207.681 168.446C207.681 169.239 207.83 169.636 208.128 169.636C208.426 169.636 208.873 169.384 209.469 168.879C212.671 166.644 216.283 162.75 220.305 157.198C220.454 156.982 220.528 156.73 220.528 156.441C220.23 155.792 220.081 154.927 220.081 153.846C220.081 149.52 222.315 144.725 226.784 139.461C231.327 134.126 235.907 130.629 240.524 128.971C240.971 128.826 241.269 128.754 241.418 128.754C241.865 128.754 242.088 128.935 242.088 129.295Z" stroke="white" stroke-width="4" mask="url(#path-1-outside-1)"/>
  <path d="M260.956 172.556C254.775 178.036 250.53 180.776 248.221 180.776C247.178 180.776 246.657 180.199 246.657 179.045C246.657 177.603 247.29 175.404 248.556 172.448C249.897 169.492 251.237 166.896 252.578 164.661L254.589 161.308C254.887 160.803 255.036 160.479 255.036 160.335C255.036 160.191 254.961 160.118 254.812 160.118C254.514 160.118 253.956 160.515 253.136 161.308C250.902 163.688 248.333 166.247 245.428 168.987C242.598 171.655 240.29 173.746 238.502 175.26L235.933 177.423C233.028 179.586 230.794 180.667 229.23 180.667C227.592 180.667 226.772 179.442 226.772 176.99C226.772 175.765 227.145 173.89 227.89 171.366C228.56 168.843 229.081 167.148 229.454 166.283C231.166 162.245 233.289 158.316 235.821 154.495C238.428 150.673 241.481 147.032 244.981 143.571C248.482 140.038 252.541 137.19 257.158 135.027C261.85 132.864 266.691 131.783 271.681 131.783C275.851 131.783 277.936 132.395 277.936 133.621C277.936 134.342 277.005 134.703 275.144 134.703C268.292 134.703 261.85 137.551 255.817 143.247C249.86 148.871 245.019 155.36 241.295 162.714C240.252 164.733 239.731 166.427 239.731 167.797C239.731 168.59 239.992 168.987 240.513 168.987C241.407 168.987 242.561 168.374 243.976 167.148C244.87 166.355 246.061 165.31 247.551 164.012C249.115 162.714 251.61 160.227 255.036 156.549C258.461 152.872 261.18 149.447 263.19 146.275C263.488 145.698 263.935 145.013 264.531 144.22C265.201 143.427 266.43 142.382 268.217 141.084C270.005 139.714 271.792 139.029 273.58 139.029C274.548 139.029 275.032 139.281 275.032 139.786C275.032 139.93 274.92 140.182 274.697 140.543C274.399 141.12 273.542 142.562 272.127 144.869C270.787 147.176 269.521 149.375 268.329 151.466C267.138 153.485 265.872 155.72 264.531 158.172C263.19 160.551 262.111 162.606 261.291 164.336C260.547 166.067 260.174 167.22 260.174 167.797C260.174 168.23 260.36 168.446 260.733 168.446C261.85 168.446 264.568 166.355 268.888 162.173C272.165 158.857 276 154.783 280.394 149.952C280.617 149.736 280.804 149.628 280.953 149.628C281.102 149.628 281.176 149.772 281.176 150.06C281.176 151.43 280.617 152.764 279.5 154.062C272.202 161.921 266.02 168.086 260.956 172.556Z" stroke="white" stroke-width="4" mask="url(#path-1-outside-1)"/>
  <path d="M332.8 163.039C335.928 160.01 340.061 155.648 345.2 149.952C345.423 149.736 345.609 149.628 345.758 149.628C345.907 149.628 345.982 149.772 345.982 150.06C345.982 151.43 345.423 152.764 344.306 154.062C338.795 159.974 333.917 164.913 329.672 168.879C320.884 176.81 315.112 180.776 312.357 180.776C311.165 180.776 310.569 180.091 310.569 178.721C310.569 177.351 311.314 175.08 312.803 171.907C314.367 168.735 315.894 165.851 317.384 163.255C318.948 160.659 320.884 157.487 323.193 153.738C325.576 149.988 326.842 147.969 326.991 147.681C328.331 145.59 329.002 144.256 329.002 143.679C329.002 143.319 328.815 143.139 328.443 143.139L326.879 143.679C323.453 146.059 319.357 149.772 314.591 154.819C309.824 159.794 305.915 164.156 302.861 167.905L298.281 173.638C294.855 178.396 291.504 180.776 288.227 180.776C287.259 180.776 286.775 180.487 286.775 179.91C286.775 179.261 287.482 177.567 288.897 174.827C290.312 172.015 291.727 169.384 293.142 166.932L295.265 163.255C295.786 162.245 297.052 160.082 299.063 156.766C301.148 153.377 302.861 150.493 304.202 148.114C305.617 145.662 306.324 144.148 306.324 143.571C306.324 143.211 306.175 143.03 305.877 143.03L304.313 143.679C300.813 146.059 296.68 149.772 291.913 154.819C287.147 159.794 283.274 164.156 280.295 167.905L275.715 173.638C272.215 178.324 268.864 180.667 265.661 180.667C264.693 180.667 264.209 180.415 264.209 179.91C264.209 179.261 264.916 177.567 266.331 174.827C267.746 172.015 269.161 169.384 270.576 166.932L272.699 163.255L283.535 144.653C285.322 141.408 287.482 138.524 290.014 136.001C292.546 133.405 295.19 132.107 297.946 132.107C298.542 132.107 298.84 132.359 298.84 132.864C298.84 133.297 298.393 134.234 297.499 135.676C296.68 137.046 295.451 138.993 293.812 141.516C292.249 143.968 290.908 146.239 289.791 148.33C289.121 149.556 288.301 150.962 287.333 152.548C286.44 154.062 285.695 155.36 285.099 156.441C284.503 157.451 284.094 158.172 283.87 158.604C283.647 159.037 283.535 159.361 283.535 159.578C283.535 159.722 283.61 159.794 283.758 159.794C283.982 159.794 284.354 159.542 284.876 159.037C286.291 157.451 288.115 155.468 290.349 153.089C292.658 150.709 296.531 147.14 301.967 142.382C307.404 137.551 311.873 134.306 315.373 132.648C316.118 132.287 316.862 132.107 317.607 132.107C318.65 132.107 319.171 132.612 319.171 133.621C319.171 135.496 316.974 140.363 312.58 148.222C312.208 148.871 311.426 150.132 310.234 152.007C309.117 153.882 308.149 155.504 307.33 156.874C306.585 158.244 306.212 159.109 306.212 159.47C306.212 159.686 306.287 159.794 306.436 159.794C306.659 159.794 307.032 159.542 307.553 159.037C308.968 157.451 310.793 155.468 313.027 153.089C315.336 150.709 319.171 147.14 324.533 142.382C329.97 137.551 334.438 134.306 337.939 132.648C338.832 132.287 339.614 132.107 340.284 132.107C341.402 132.107 341.96 132.612 341.96 133.621C341.96 133.91 341.811 134.559 341.513 135.568C341.215 136.505 340.359 138.488 338.944 141.516C337.529 144.472 335.667 147.753 333.358 151.358C327.698 159.794 324.868 165.094 324.868 167.257C324.868 167.905 325.092 168.23 325.539 168.23C326.805 168.23 329.225 166.499 332.8 163.039Z" stroke="white" stroke-width="4" mask="url(#path-1-outside-1)"/>
  <path d="M350.012 168.879C341.299 176.81 335.713 180.776 333.255 180.776C331.989 180.776 331.356 179.946 331.356 178.288C331.356 176.63 332.027 174.214 333.367 171.042C334.708 167.869 336.048 165.094 337.389 162.714L339.4 159.253C345.06 149.664 349.342 142.778 352.246 138.596C353.512 136.794 355.114 135.28 357.05 134.054C359.061 132.756 360.923 132.107 362.636 132.107C363.231 132.107 363.529 132.359 363.529 132.864C363.529 133.225 363.269 133.91 362.747 134.919C361.854 136.505 359.657 140.291 356.156 146.275C352.656 152.259 350.571 155.865 349.9 157.09C346.847 162.282 345.32 165.742 345.32 167.473C345.32 168.122 345.544 168.446 345.99 168.446C346.735 168.446 349.118 166.644 353.14 163.039C356.268 160.01 360.401 155.648 365.54 149.952C365.763 149.736 365.95 149.628 366.099 149.628C366.248 149.628 366.322 149.772 366.322 150.06C366.322 151.43 365.763 152.764 364.646 154.062C359.135 159.974 354.257 164.913 350.012 168.879ZM364.87 125.942C363.008 125.942 362.077 124.861 362.077 122.698C362.077 120.679 362.859 118.66 364.423 116.641C365.987 114.55 367.7 113.505 369.562 113.505C371.796 113.505 372.913 114.731 372.913 117.182C372.913 119.201 372.057 121.184 370.344 123.13C368.631 125.005 366.806 125.942 364.87 125.942Z" stroke="white" stroke-width="4" mask="url(#path-1-outside-1)"/>
  <path d="M531.734 19.3044C526.222 23.4862 519.52 31.85 511.626 44.3957C503.88 56.7971 495.241 72.0105 485.708 90.0359C476.325 108.061 471.484 117.362 471.186 117.939C470.143 119.67 468.281 122.986 465.6 127.889C462.919 132.792 460.76 136.686 459.121 139.57C457.632 142.309 455.323 146.131 452.195 151.034C449.216 155.792 446.535 159.686 444.152 162.714C441.769 165.742 438.864 169.131 435.438 172.88C432.012 176.486 428.661 179.297 425.384 181.316C422.256 183.479 418.682 185.282 414.66 186.724C410.638 188.166 406.617 188.887 402.595 188.887C399.169 188.887 397.456 188.238 397.456 186.94C397.456 186.508 397.68 186.075 398.127 185.642C398.573 185.21 399.02 184.849 399.467 184.561L400.137 184.345C406.542 180.451 414.436 172.087 423.82 159.253C433.204 146.419 441.024 134.522 447.28 123.563L456.44 107.34C463.292 94.6504 469.994 83.042 476.548 72.5152C483.251 61.8442 488.836 53.5525 493.305 47.6402C497.922 41.7279 501.944 36.7529 505.37 32.7152C508.944 28.5333 511.626 25.7214 513.413 24.2794L515.871 22.1163C516.317 21.6837 516.541 21.2511 516.541 20.8185C516.541 19.5207 514.307 18.8717 509.838 18.8717C505.072 18.8717 500.454 20.0254 495.986 22.3326C491.517 24.6399 487.719 27.4518 484.591 30.7685C481.612 34.0851 478.931 37.4739 476.548 40.9348C474.165 44.2515 472.452 47.0634 471.409 49.3707L469.622 52.8315C469.026 55.1388 468.207 56.2924 467.164 56.2924C464.632 56.2924 463.366 53.1199 463.366 46.775C463.366 38.988 465.973 32.4268 471.186 27.0913C476.548 21.7558 482.878 18.0786 490.177 16.0598C497.624 13.8967 505.668 12.8152 514.307 12.8152C519.52 12.8152 525.254 13.2478 531.51 14.113C533.298 14.4015 534.191 15.0504 534.191 16.0598C534.191 17.0692 533.372 18.1507 531.734 19.3044Z" stroke="white" stroke-width="4" mask="url(#path-1-outside-1)"/>
  <path d="M492.09 167.04C490.749 170.573 488.627 173.565 485.722 176.017C482.818 178.396 480.1 180.018 477.567 180.884C475.11 181.749 472.876 182.182 470.865 182.182C465.428 182.182 462.71 180.127 462.71 176.017C462.71 171.835 465.093 168.05 469.859 164.661C472.094 163.075 474.514 162.029 477.121 161.524C477.493 161.524 477.679 161.669 477.679 161.957C477.679 162.101 477.605 162.245 477.456 162.39C475.594 163.76 473.806 165.887 472.094 168.771C470.455 171.655 469.636 174.178 469.636 176.341C469.636 178.504 470.567 179.586 472.429 179.586C473.918 179.586 475.37 179.009 476.785 177.855C478.275 176.63 479.392 175.404 480.137 174.178L481.254 172.448C482.743 170.141 483.972 166.463 484.94 161.416C485.983 156.369 486.653 151.899 486.951 148.005L487.286 142.165C487.286 141.588 487.175 141.3 486.951 141.3L486.504 141.516L475.445 154.062C474.626 154.999 474.067 155.468 473.769 155.468C473.397 155.468 473.211 155.216 473.211 154.711C473.211 153.774 473.471 153.053 473.993 152.548L474.998 151.358C483.488 142.129 488.329 136.541 489.521 134.595C490.638 132.936 492.276 131.494 494.436 130.268C496.521 129.115 498.979 128.538 501.809 128.538C502.554 128.538 502.926 128.826 502.926 129.403C502.926 129.764 502.628 130.088 502.032 130.377C501.809 130.449 501.511 130.629 501.139 130.917C500.841 131.134 500.245 131.711 499.351 132.648C498.532 133.585 497.787 134.667 497.117 135.892C496.447 137.118 495.851 138.849 495.33 141.084C494.808 143.247 494.548 145.662 494.548 148.33C494.548 156.622 493.728 162.858 492.09 167.04Z" stroke="white" stroke-width="4" mask="url(#path-1-outside-1)"/>
  <path d="M528.78 172.556C522.599 178.036 518.354 180.776 516.045 180.776C515.002 180.776 514.481 180.199 514.481 179.045C514.481 177.603 515.114 175.404 516.38 172.448C517.721 169.492 519.061 166.896 520.402 164.661L522.413 161.308C522.711 160.803 522.859 160.479 522.859 160.335C522.859 160.191 522.785 160.118 522.636 160.118C522.338 160.118 521.78 160.515 520.96 161.308C518.726 163.688 516.157 166.247 513.252 168.987C510.422 171.655 508.114 173.746 506.326 175.26L503.757 177.423C500.852 179.586 498.618 180.667 497.054 180.667C495.416 180.667 494.596 179.442 494.596 176.99C494.596 175.765 494.969 173.89 495.714 171.366C496.384 168.843 496.905 167.148 497.278 166.283C498.99 162.245 501.113 158.316 503.645 154.495C506.252 150.673 509.305 147.032 512.805 143.571C516.306 140.038 520.365 137.19 524.982 135.027C529.674 132.864 534.515 131.783 539.505 131.783C543.675 131.783 545.76 132.395 545.76 133.621C545.76 134.342 544.829 134.703 542.968 134.703C536.116 134.703 529.674 137.551 523.641 143.247C517.684 148.871 512.843 155.36 509.119 162.714C508.076 164.733 507.555 166.427 507.555 167.797C507.555 168.59 507.816 168.987 508.337 168.987C509.231 168.987 510.385 168.374 511.8 167.148C512.694 166.355 513.885 165.31 515.375 164.012C516.939 162.714 519.434 160.227 522.859 156.549C526.285 152.872 529.004 149.447 531.014 146.275C531.312 145.698 531.759 145.013 532.355 144.22C533.025 143.427 534.254 142.382 536.041 141.084C537.829 139.714 539.616 139.029 541.404 139.029C542.372 139.029 542.856 139.281 542.856 139.786C542.856 139.93 542.744 140.182 542.521 140.543C542.223 141.12 541.366 142.562 539.951 144.869C538.611 147.176 537.345 149.375 536.153 151.466C534.962 153.485 533.696 155.72 532.355 158.172C531.014 160.551 529.935 162.606 529.115 164.336C528.371 166.067 527.998 167.22 527.998 167.797C527.998 168.23 528.184 168.446 528.557 168.446C529.674 168.446 532.392 166.355 536.712 162.173C539.989 158.857 543.824 154.783 548.218 149.952C548.441 149.736 548.628 149.628 548.777 149.628C548.925 149.628 549 149.772 549 150.06C549 151.43 548.441 152.764 547.324 154.062C540.026 161.921 533.844 168.086 528.78 172.556Z" stroke="white" stroke-width="4" mask="url(#path-1-outside-1)"/>
</svg>
